<svg width="15" height="15" viewBox="0 0 15 15" fill="none" xmlns="http://www.w3.org/2000/svg">
<g clip-path="url(#clip0_112_406)">
<path d="M14.5872 4.16321L13.2366 5.51379C13.0989 5.65149 12.8763 5.65149 12.7386 5.51379L9.48661 2.26184C9.34892 2.12415 9.34892 1.90149 9.48661 1.76379L10.8372 0.413208C11.385 -0.134644 12.2757 -0.134644 12.8265 0.413208L14.5872 2.17395C15.138 2.7218 15.138 3.61243 14.5872 4.16321ZM8.32646 2.92395L0.633095 10.6173L0.0120011 14.1769C-0.0729598 14.6573 0.345986 15.0734 0.826454 14.9913L4.38602 14.3673L12.0794 6.67395C12.2171 6.53626 12.2171 6.3136 12.0794 6.1759L8.82743 2.92395C8.68681 2.78626 8.46415 2.78626 8.32646 2.92395ZM3.63602 9.95813C3.47489 9.797 3.47489 9.53918 3.63602 9.37805L8.14774 4.86633C8.30888 4.7052 8.56669 4.7052 8.72782 4.86633C8.88895 5.02747 8.88895 5.28528 8.72782 5.44641L4.2161 9.95813C4.05497 10.1193 3.79716 10.1193 3.63602 9.95813ZM2.57841 12.422H3.98466V13.4855L2.09501 13.8165L1.18388 12.9054L1.51493 11.0157H2.57841V12.422Z" fill="white"/>
</g>
<defs>
<clipPath id="clip0_112_406">
<rect width="15" height="15" fill="white"/>
</clipPath>
</defs>
</svg>
